<?xml version="1.0" encoding="UTF-8" standalone="no" ?>
<!DOCTYPE svg PUBLIC "-//W3C//DTD SVG 1.1//EN" "http://www.w3.org/Graphics/SVG/1.1/DTD/svg11.dtd">
<svg xmlns="http://www.w3.org/2000/svg" xmlns:xlink="http://www.w3.org/1999/xlink" version="1.1" width="1280" height="1024" viewBox="0 0 1280 1024" xml:space="preserve">
<desc>Created with Fabric.js 5.3.0</desc>
<defs>
</defs>
<g transform="matrix(1 0 0 1 640 512)" id="background-logo"  >
<rect style="stroke: none; stroke-width: 0; stroke-dasharray: none; stroke-linecap: butt; stroke-dashoffset: 0; stroke-linejoin: miter; stroke-miterlimit: 4; fill: rgb(255,255,255); fill-opacity: 0; fill-rule: nonzero; opacity: 1;"  paint-order="stroke"  x="-640" y="-512" rx="0" ry="0" width="1280" height="1024" />
</g>
<g transform="matrix(1.9211538461538462 0 0 1.9211538461538462 640.3459141274238 465.8372151453434)" id="logo-logo"  >
<g style=""  paint-order="stroke"   >
		<g transform="matrix(0.8734019609656493 0 0 0.873401960965649 -8.816992795948238 11.522091710952054)"  >
<linearGradient id="SVGID_18_646031" gradientUnits="userSpaceOnUse" gradientTransform="matrix(1 0 0 1 0 0)"  x1="10.98" y1="152.91" x2="152.71" y2="39.45">
<stop offset="0%" style="stop-color:rgb(232,90,34);stop-opacity: 1"/>
<stop offset="100%" style="stop-color:rgb(255,189,11);stop-opacity: 1"/>
</linearGradient>
<path style="stroke: none; stroke-width: 1; stroke-dasharray: none; stroke-linecap: butt; stroke-dashoffset: 0; stroke-linejoin: miter; stroke-miterlimit: 4; fill: url(#SVGID_18_646031); fill-rule: nonzero; opacity: 1;"  paint-order="stroke"  transform=" translate(-89.9133808114099, -113.20000000000002)" d="M 153.97 99.32 L 153.97 105.66 C 153.97 109.24 150.75 112.47999999999999 146.94 112.72999999999999 L 92.96000000000001 116.52 L 85.12 117.06 C 83.72 119.19 82.28 121.41 80.81 123.65 L 88.65 123.11 L 147.38 119.01 C 154.47 118.51 160.24 112.53 160.24 105.67 L 160.24 98.89 L 153.97 99.33 Z M 39.16 171.25 L 45.73 126.62 C 46 124.80000000000001 45.5 123.04 44.37 121.83 C 43.39 120.78 42.03 120.2 40.559999999999995 120.2 L 40.16 120.2 L 26.099999999999994 121.18 L 39.489999999999995 61.470000000000006 C 40.029999999999994 59.09 42.589999999999996 56.660000000000004 44.92999999999999 56.28000000000001 L 51.41 55.23000000000001 L 58.08 54.14000000000001 L 59.57 47.53000000000001 L 52.9 48.62000000000001 L 43.93 50.08000000000001 C 39.01 50.88000000000001 34.480000000000004 55.180000000000014 33.39 60.10000000000001 L 19.75 120.86000000000001 C 19.33 122.72000000000001 19.73 124.56000000000002 20.84 125.86000000000001 C 21.86 127.05000000000001 23.39 127.64000000000001 25.02 127.55000000000001 L 39.39 126.55000000000001 L 32.76 171.69 C 32.3 174.81 33.739999999999995 177.53 36.339999999999996 178.51 C 36.97 178.73999999999998 37.63999999999999 178.87 38.29 178.87 C 40.42 178.87 42.519999999999996 177.66 43.9 175.5 C 46.79 171.02 49.97 166.07 53.29 160.9 C 55.61 157.32 57.98 153.64000000000001 60.36 150 L 62.54 135.09 C 59.879999999999995 139.17000000000002 57.12 143.41 54.36 147.66 C 49.05 155.92 43.71 164.16 39.18 171.25 Z" stroke-linecap="round" />
</g>
		<g transform="matrix(0.8734019609656493 0 0 0.873401960965649 8.812625786143428 -6.271026079733389)"  >
<linearGradient id="SVGID_19_646032" gradientUnits="userSpaceOnUse" gradientTransform="matrix(1 0 0 1 0 0)"  x1="39.75" y1="92.83" x2="180.41" y2="92.83">
<stop offset="0%" style="stop-color:rgb(162,74,147);stop-opacity: 1"/>
<stop offset="100%" style="stop-color:rgb(0,165,230);stop-opacity: 1"/>
</linearGradient>
<path style="stroke: none; stroke-width: 1; stroke-dasharray: none; stroke-linecap: butt; stroke-dashoffset: 0; stroke-linejoin: miter; stroke-miterlimit: 4; fill: url(#SVGID_19_646032); fill-rule: nonzero; opacity: 1;"  paint-order="stroke"  transform=" translate(-110.0983808114099, -92.82780187599647)" d="M 172.96 26.87 C 167.88 22.560000000000002 160.83 20.57 153.32 21.29 L 153.32 21.29 C 153.32 24.56 155.82 27.2 159.07 27.58 C 162.85999999999999 28.029999999999998 166.26 29.419999999999998 168.91 31.659999999999997 C 172.32 34.56999999999999 174.14 38.599999999999994 174.14 43.33 L 174.14 91.31 C 174.14 94.89 170.92 98.13 167.10999999999999 98.4 L 160.24999999999997 98.88000000000001 L 153.97999999999996 99.32000000000001 L 97.31999999999996 103.27000000000001 C 95.24999999999997 103.42000000000002 93.27999999999996 104.61000000000001 92.06999999999996 106.47000000000001 C 89.93999999999997 109.69000000000001 87.58999999999996 113.27000000000001 85.12999999999997 117.05000000000001 C 83.72999999999996 119.18 82.28999999999996 121.4 80.81999999999996 123.64000000000001 C 73.53999999999996 134.85000000000002 65.67999999999996 147.02 59.33999999999996 156.9 L 60.359999999999964 150 L 62.539999999999964 135.09 L 65.90999999999997 112.27000000000001 C 66.15999999999997 110.45000000000002 65.67999999999996 108.71000000000001 64.52999999999997 107.48 C 63.56999999999997 106.43 62.20999999999997 105.85000000000001 60.739999999999974 105.85000000000001 C 60.60999999999997 105.85000000000001 60.46999999999997 105.85000000000001 60.339999999999975 105.87 L 46.27999999999997 106.85000000000001 L 58.09999999999997 54.14000000000001 L 59.589999999999975 47.53000000000001 L 59.66999999999997 47.13000000000001 C 60.20999999999997 44.75000000000001 62.739999999999974 42.32000000000001 65.10999999999997 41.92000000000001 L 83.63999999999997 38.91000000000001 L 83.63999999999997 38.91000000000001 C 83.63999999999997 35.58000000000001 80.64999999999998 33.04000000000001 77.35999999999997 33.57000000000001 L 64.09999999999997 35.730000000000004 C 59.179999999999964 36.52 54.64999999999996 40.830000000000005 53.55999999999997 45.75 L 52.90999999999997 48.62 L 51.42999999999997 55.23 L 39.92999999999997 106.52 C 39.50999999999997 108.39999999999999 39.90999999999997 110.22 41.019999999999975 111.52 C 42.03999999999998 112.71 43.56999999999997 113.32 45.17999999999998 113.21 L 59.56999999999998 112.21 L 54.35999999999998 147.66 L 52.939999999999976 157.35999999999999 C 52.74999999999998 158.64 52.879999999999974 159.85 53.299999999999976 160.89 C 53.85999999999998 162.39999999999998 54.989999999999974 163.58999999999997 56.519999999999975 164.14999999999998 C 57.14999999999998 164.39999999999998 57.81999999999997 164.51 58.46999999999998 164.51 C 60.59999999999998 164.51 62.699999999999974 163.29999999999998 64.07999999999998 161.16 C 71.24999999999999 149.97 80.49999999999999 135.64 88.67999999999998 123.09 C 90.15999999999998 120.83 91.60999999999999 118.61 92.98999999999998 116.5 C 94.51999999999998 114.18 95.95999999999998 111.98 97.31999999999998 109.91 C 97.48999999999998 109.66 97.71999999999998 109.53 97.77999999999997 109.53 L 153.99999999999997 105.6 L 160.26999999999998 105.14 L 167.57 104.64 C 174.66 104.16 180.43 98.16 180.43 91.3 L 180.43 43.32 C 180.43 36.79 177.79000000000002 30.96 172.98000000000002 26.86 Z" stroke-linecap="round" />
</g>
		<g transform="matrix(0.8734019609656493 0 0 0.873401960965649 16.1375154313302 -61.08818031392724)"  >
<linearGradient id="SVGID_20_646033" gradientUnits="userSpaceOnUse" gradientTransform="matrix(1 0 0 1 0 0)"  x1="88.09" y1="30.07" x2="148.87" y2="30.07">
<stop offset="0%" style="stop-color:rgb(57,172,74);stop-opacity: 1"/>
<stop offset="100%" style="stop-color:rgb(0,165,230);stop-opacity: 1"/>
</linearGradient>
<path style="stroke: none; stroke-width: 1; stroke-dasharray: none; stroke-linecap: butt; stroke-dashoffset: 0; stroke-linejoin: miter; stroke-miterlimit: 4; fill: url(#SVGID_20_646033); fill-rule: nonzero; opacity: 1;"  paint-order="stroke"  transform=" translate(-118.485, -30.064999999999998)" d="M 148.87 21.95 L 94.37 30.799999999999997 C 90.75 31.389999999999997 88.09 34.51 88.09 38.18 L 88.09 38.18 C 88.09 38.18 142.62 29.310000000000002 142.62 29.310000000000002 C 146.23000000000002 28.720000000000002 148.88 25.610000000000003 148.88 21.950000000000003 L 148.88 21.950000000000003 Z" stroke-linecap="round" />
</g>
</g>
</g>
<g transform="matrix(1 0 0 1 325 377.15627873330845)" id="tagline-b7f606a3-8163-44c0-8f68-586458845a88-logo"  >
<g style=""  paint-order="stroke"   >
		<g transform="matrix(1 0 0 1 0 0)" id="tagline-b7f606a3-8163-44c0-8f68-586458845a88-logo-path-0"  >
<path style="stroke: none; stroke-width: 0; stroke-dasharray: none; stroke-linecap: butt; stroke-dashoffset: 0; stroke-linejoin: miter; stroke-miterlimit: 4; fill: rgb(50,171,93); fill-rule: nonzero; opacity: 1;"  paint-order="stroke"  transform=" translate(0, 0)" d="" stroke-linecap="round" />
</g>
</g>
</g>
<g transform="matrix(1.9211538461538462 0 0 1.9211538461538462 667.9097501126803 413.59053472449204)" id="tagline-8838c43f-db52-49b8-aa33-a772117c78c3-logo"  >
<g style=""  paint-order="stroke"   >
		<g transform="matrix(1 0 0 1 0 0)" id="tagline-8838c43f-db52-49b8-aa33-a772117c78c3-logo-path-0"  >
<path style="stroke: none; stroke-width: 0; stroke-dasharray: none; stroke-linecap: butt; stroke-dashoffset: 0; stroke-linejoin: miter; stroke-miterlimit: 4; fill: rgb(10,160,225); fill-rule: nonzero; opacity: 1;"  paint-order="stroke"  transform=" translate(-18.179999999999996, 19.415)" d="M 18.21 0 L 12.16 0 L 0.81 -38.83 L 5.53 -38.83 Q 10.2 -38.83 11.24 -35.09 L 11.24 -35.09 L 18.5 -8.76 L 25.52 -35.09 Q 26.5 -38.83 31.06 -38.83 L 31.06 -38.83 L 35.55 -38.83 L 25.64 -4.84 Q 24.26 0 18.21 0 L 18.21 0 Z" stroke-linecap="round" />
</g>
</g>
</g>
</svg>