<?xml version="1.0" encoding="UTF-8" standalone="no" ?>
<!DOCTYPE svg PUBLIC "-//W3C//DTD SVG 1.1//EN" "http://www.w3.org/Graphics/SVG/1.1/DTD/svg11.dtd">
<svg xmlns="http://www.w3.org/2000/svg" xmlns:xlink="http://www.w3.org/1999/xlink" version="1.1" width="1280" height="1024" viewBox="0 0 1280 1024" xml:space="preserve">
<desc>Created with Fabric.js 5.3.0</desc>
<defs>
</defs>
<g transform="matrix(1 0 0 1 640 512)" id="background-logo"  >
<rect style="stroke: none; stroke-width: 0; stroke-dasharray: none; stroke-linecap: butt; stroke-dashoffset: 0; stroke-linejoin: miter; stroke-miterlimit: 4; fill: rgb(233,251,240); fill-rule: nonzero; opacity: 1;"  paint-order="stroke"  x="-640" y="-512" rx="0" ry="0" width="1280" height="1024" />
</g>
<g transform="matrix(1.9211538461538462 0 0 1.9211538461538462 640.3459141274238 465.8372151453434)" id="logo-logo"  >
<g style=""  paint-order="stroke"   >
		<g transform="matrix(0.8734019609656493 0 0 0.873401960965649 -8.816992795948238 11.522091710952054)"  >
<linearGradient id="SVGID_54_77980" gradientUnits="userSpaceOnUse" gradientTransform="matrix(1 0 0 1 0 0)"  x1="10.98" y1="152.91" x2="152.71" y2="39.45">
<stop offset="0%" style="stop-color:rgb(232,90,34);stop-opacity: 1"/>
<stop offset="100%" style="stop-color:rgb(255,189,11);stop-opacity: 1"/>
</linearGradient>
<path style="stroke: none; stroke-width: 1; stroke-dasharray: none; stroke-linecap: butt; stroke-dashoffset: 0; stroke-linejoin: miter; stroke-miterlimit: 4; fill: url(#SVGID_54_77980); fill-rule: nonzero; opacity: 1;"  paint-order="stroke"  transform=" translate(-89.9133808114099, -113.20000000000002)" d="M 153.97 99.32 L 153.97 105.66 C 153.97 109.24 150.75 112.47999999999999 146.94 112.72999999999999 L 92.96000000000001 116.52 L 85.12 117.06 C 83.72 119.19 82.28 121.41 80.81 123.65 L 88.65 123.11 L 147.38 119.01 C 154.47 118.51 160.24 112.53 160.24 105.67 L 160.24 98.89 L 153.97 99.33 Z M 39.16 171.25 L 45.73 126.62 C 46 124.80000000000001 45.5 123.04 44.37 121.83 C 43.39 120.78 42.03 120.2 40.559999999999995 120.2 L 40.16 120.2 L 26.099999999999994 121.18 L 39.489999999999995 61.470000000000006 C 40.029999999999994 59.09 42.589999999999996 56.660000000000004 44.92999999999999 56.28000000000001 L 51.41 55.23000000000001 L 58.08 54.14000000000001 L 59.57 47.53000000000001 L 52.9 48.62000000000001 L 43.93 50.08000000000001 C 39.01 50.88000000000001 34.480000000000004 55.180000000000014 33.39 60.10000000000001 L 19.75 120.86000000000001 C 19.33 122.72000000000001 19.73 124.56000000000002 20.84 125.86000000000001 C 21.86 127.05000000000001 23.39 127.64000000000001 25.02 127.55000000000001 L 39.39 126.55000000000001 L 32.76 171.69 C 32.3 174.81 33.739999999999995 177.53 36.339999999999996 178.51 C 36.97 178.73999999999998 37.63999999999999 178.87 38.29 178.87 C 40.42 178.87 42.519999999999996 177.66 43.9 175.5 C 46.79 171.02 49.97 166.07 53.29 160.9 C 55.61 157.32 57.98 153.64000000000001 60.36 150 L 62.54 135.09 C 59.879999999999995 139.17000000000002 57.12 143.41 54.36 147.66 C 49.05 155.92 43.71 164.16 39.18 171.25 Z" stroke-linecap="round" />
</g>
		<g transform="matrix(0.8734019609656493 0 0 0.873401960965649 8.812625786143428 -6.271026079733389)"  >
<linearGradient id="SVGID_55_77981" gradientUnits="userSpaceOnUse" gradientTransform="matrix(1 0 0 1 0 0)"  x1="39.75" y1="92.83" x2="180.41" y2="92.83">
<stop offset="0%" style="stop-color:rgb(162,74,147);stop-opacity: 1"/>
<stop offset="100%" style="stop-color:rgb(0,165,230);stop-opacity: 1"/>
</linearGradient>
<path style="stroke: none; stroke-width: 1; stroke-dasharray: none; stroke-linecap: butt; stroke-dashoffset: 0; stroke-linejoin: miter; stroke-miterlimit: 4; fill: url(#SVGID_55_77981); fill-rule: nonzero; opacity: 1;"  paint-order="stroke"  transform=" translate(-110.0983808114099, -92.82780187599647)" d="M 172.96 26.87 C 167.88 22.560000000000002 160.83 20.57 153.32 21.29 L 153.32 21.29 C 153.32 24.56 155.82 27.2 159.07 27.58 C 162.85999999999999 28.029999999999998 166.26 29.419999999999998 168.91 31.659999999999997 C 172.32 34.56999999999999 174.14 38.599999999999994 174.14 43.33 L 174.14 91.31 C 174.14 94.89 170.92 98.13 167.10999999999999 98.4 L 160.24999999999997 98.88000000000001 L 153.97999999999996 99.32000000000001 L 97.31999999999996 103.27000000000001 C 95.24999999999997 103.42000000000002 93.27999999999996 104.61000000000001 92.06999999999996 106.47000000000001 C 89.93999999999997 109.69000000000001 87.58999999999996 113.27000000000001 85.12999999999997 117.05000000000001 C 83.72999999999996 119.18 82.28999999999996 121.4 80.81999999999996 123.64000000000001 C 73.53999999999996 134.85000000000002 65.67999999999996 147.02 59.33999999999996 156.9 L 60.359999999999964 150 L 62.539999999999964 135.09 L 65.90999999999997 112.27000000000001 C 66.15999999999997 110.45000000000002 65.67999999999996 108.71000000000001 64.52999999999997 107.48 C 63.56999999999997 106.43 62.20999999999997 105.85000000000001 60.739999999999974 105.85000000000001 C 60.60999999999997 105.85000000000001 60.46999999999997 105.85000000000001 60.339999999999975 105.87 L 46.27999999999997 106.85000000000001 L 58.09999999999997 54.14000000000001 L 59.589999999999975 47.53000000000001 L 59.66999999999997 47.13000000000001 C 60.20999999999997 44.75000000000001 62.739999999999974 42.32000000000001 65.10999999999997 41.92000000000001 L 83.63999999999997 38.91000000000001 L 83.63999999999997 38.91000000000001 C 83.63999999999997 35.58000000000001 80.64999999999998 33.04000000000001 77.35999999999997 33.57000000000001 L 64.09999999999997 35.730000000000004 C 59.179999999999964 36.52 54.64999999999996 40.830000000000005 53.55999999999997 45.75 L 52.90999999999997 48.62 L 51.42999999999997 55.23 L 39.92999999999997 106.52 C 39.50999999999997 108.39999999999999 39.90999999999997 110.22 41.019999999999975 111.52 C 42.03999999999998 112.71 43.56999999999997 113.32 45.17999999999998 113.21 L 59.56999999999998 112.21 L 54.35999999999998 147.66 L 52.939999999999976 157.35999999999999 C 52.74999999999998 158.64 52.879999999999974 159.85 53.299999999999976 160.89 C 53.85999999999998 162.39999999999998 54.989999999999974 163.58999999999997 56.519999999999975 164.14999999999998 C 57.14999999999998 164.39999999999998 57.81999999999997 164.51 58.46999999999998 164.51 C 60.59999999999998 164.51 62.699999999999974 163.29999999999998 64.07999999999998 161.16 C 71.24999999999999 149.97 80.49999999999999 135.64 88.67999999999998 123.09 C 90.15999999999998 120.83 91.60999999999999 118.61 92.98999999999998 116.5 C 94.51999999999998 114.18 95.95999999999998 111.98 97.31999999999998 109.91 C 97.48999999999998 109.66 97.71999999999998 109.53 97.77999999999997 109.53 L 153.99999999999997 105.6 L 160.26999999999998 105.14 L 167.57 104.64 C 174.66 104.16 180.43 98.16 180.43 91.3 L 180.43 43.32 C 180.43 36.79 177.79000000000002 30.96 172.98000000000002 26.86 Z" stroke-linecap="round" />
</g>
		<g transform="matrix(0.8734019609656493 0 0 0.873401960965649 16.1375154313302 -61.08818031392724)"  >
<linearGradient id="SVGID_56_77982" gradientUnits="userSpaceOnUse" gradientTransform="matrix(1 0 0 1 0 0)"  x1="88.09" y1="30.07" x2="148.87" y2="30.07">
<stop offset="0%" style="stop-color:rgb(57,172,74);stop-opacity: 1"/>
<stop offset="100%" style="stop-color:rgb(0,165,230);stop-opacity: 1"/>
</linearGradient>
<path style="stroke: none; stroke-width: 1; stroke-dasharray: none; stroke-linecap: butt; stroke-dashoffset: 0; stroke-linejoin: miter; stroke-miterlimit: 4; fill: url(#SVGID_56_77982); fill-rule: nonzero; opacity: 1;"  paint-order="stroke"  transform=" translate(-118.485, -30.064999999999998)" d="M 148.87 21.95 L 94.37 30.799999999999997 C 90.75 31.389999999999997 88.09 34.51 88.09 38.18 L 88.09 38.18 C 88.09 38.18 142.62 29.310000000000002 142.62 29.310000000000002 C 146.23000000000002 28.720000000000002 148.88 25.610000000000003 148.88 21.950000000000003 L 148.88 21.950000000000003 Z" stroke-linecap="round" />
</g>
</g>
</g>
<g transform="matrix(1.9211538461538462 0 0 1.9211538461538462 643.4581833581932 731.9448017003068)" id="text-logo"  >
<g style=""  paint-order="stroke"   >
		<g transform="matrix(1 0 0 1 0 0)" id="text-logo-path-0"  >
<filter id="SVGID_77976" y="-28.333333333333332%" height="156.66666666666666%" x="-20.34204275534442%" width="140.68408551068885%" >
	<feGaussianBlur in="SourceAlpha" stdDeviation="0"></feGaussianBlur>
	<feOffset dx="1.4399999999999995" dy="1.4399999999999995" result="oBlur" ></feOffset>
	<feFlood flood-color="rgb(25,161,223)" flood-opacity="1"/>
	<feComposite in2="oBlur" operator="in" />
	<feMerge>
		<feMergeNode></feMergeNode>
		<feMergeNode in="SourceGraphic"></feMergeNode>
	</feMerge>
</filter>
<path style="stroke: none; stroke-width: 0; stroke-dasharray: none; stroke-linecap: butt; stroke-dashoffset: 0; stroke-linejoin: miter; stroke-miterlimit: 4; fill: rgb(142,85,157); fill-rule: nonzero; opacity: 1;filter: url(#SVGID_77976);"  paint-order="stroke"  transform=" translate(-211.56, 8.4)" d="M 1.06 -16.8 L 1.06 0 L 6.1 0 C 10.85 0 14.74 -3.65 14.74 -8.4 C 14.74 -13.15 10.85 -16.8 6.1 -16.8 Z M 2.98 -1.8 L 2.98 -15 L 6.1 -15 C 10.01 -15 12.82 -12.43 12.82 -8.4 C 12.82 -4.37 10.01 -1.8 6.1 -1.8 Z M 18.43 -16.8 L 18.43 0 L 30.19 0 L 30.19 -1.8 L 20.35 -1.8 L 20.35 -7.51 L 27.79 -7.51 L 27.79 -9.31 L 20.35 -9.31 L 20.35 -15 L 30.19 -15 L 30.19 -16.8 Z M 33.89 -16.8 L 33.89 0 L 35.81 0 L 35.81 -13.9 L 41.57 0 L 43.49 0 L 49.25 -13.9 L 49.25 0 L 51.17 0 L 51.17 -16.8 L 48.53 -16.8 L 42.53 -2.33 L 36.53 -16.8 Z M 63.5 -1.56 C 59.59 -1.56 56.78 -4.37 56.78 -8.4 C 56.78 -12.43 59.59 -15.24 63.5 -15.24 C 67.42 -15.24 70.22 -12.43 70.22 -8.4 C 70.22 -4.37 67.42 -1.56 63.5 -1.56 Z M 54.86 -8.4 C 54.86 -3.65 58.75 0.24 63.5 0.24 C 68.26 0.24 72.14 -3.65 72.14 -8.4 C 72.14 -13.15 68.26 -17.04 63.5 -17.04 C 58.75 -17.04 54.86 -13.15 54.86 -8.4 Z M 84.48 0.24 C 88.03 0.24 91.13 -1.94 92.42 -5.04 L 90.43 -5.04 C 89.35 -2.88 87.19 -1.56 84.48 -1.56 C 80.57 -1.56 77.76 -4.37 77.76 -8.4 C 77.76 -12.43 80.57 -15.24 84.48 -15.24 C 86.64 -15.24 88.46 -14.38 89.66 -12.94 L 91.08 -13.97 C 89.5 -15.84 87.12 -17.04 84.48 -17.04 C 79.73 -17.04 75.84 -13.15 75.84 -8.4 C 75.84 -3.65 79.73 0.24 84.48 0.24 Z M 96.12 0 L 98.04 0 L 98.04 -7.03 L 101.02 -7.03 C 105.24 -7.03 106.66 -3.96 106.66 0 L 108.58 0 C 108.58 -2.98 107.69 -5.9 105.43 -7.54 C 107.04 -8.33 108.17 -10.01 108.17 -11.95 C 108.17 -14.59 105.96 -16.8 103.32 -16.8 L 96.12 -16.8 Z M 98.04 -8.83 L 98.04 -15 L 103.2 -15 C 104.88 -15 106.27 -13.61 106.27 -11.93 C 106.27 -10.22 104.88 -8.83 103.2 -8.83 Z M 118.99 -16.8 L 112.27 0 L 114.29 0 L 115.94 -4.15 L 124.63 -4.15 L 126.29 0 L 128.3 0 L 121.58 -16.8 Z M 116.66 -5.95 L 120.29 -15 L 123.91 -5.95 Z M 137.28 0 L 139.2 0 L 139.2 -15 L 144.48 -15 L 144.48 -16.8 L 132 -16.8 L 132 -15 L 137.28 -15 Z M 148.18 -16.8 L 148.18 0 L 150.1 0 L 150.1 -16.8 Z M 153.79 -1.8 L 153.79 0 L 166.27 0 L 166.27 -1.8 L 156.19 -1.8 L 166.27 -15 L 166.27 -16.8 L 153.79 -16.8 L 153.79 -15 L 163.87 -15 Z M 169.97 -16.8 L 169.97 0 L 171.89 0 L 171.89 -16.8 Z M 175.58 -16.8 L 175.58 0 L 177.5 0 L 177.5 -14.86 L 186.62 0 L 189.5 0 L 189.5 -16.8 L 187.58 -16.8 L 187.58 -1.94 L 178.46 -16.8 Z M 201.84 0.24 C 204.17 0.24 206.3 -0.7 207.86 -2.23 L 207.86 0 L 209.78 0 L 209.78 -8.28 L 202.1 -8.28 L 202.1 -6.48 L 207.86 -6.48 L 207.86 -5.23 C 206.78 -3.07 204.55 -1.56 201.84 -1.56 C 197.93 -1.56 195.12 -4.37 195.12 -8.4 C 195.12 -12.43 197.93 -15.24 201.84 -15.24 C 204 -15.24 205.82 -14.38 207.02 -12.94 L 208.44 -13.97 C 206.86 -15.84 204.48 -17.04 201.84 -17.04 C 197.09 -17.04 193.2 -13.15 193.2 -8.4 C 193.2 -3.65 197.09 0.24 201.84 0.24 Z M 219.86 -16.8 L 219.86 0 L 231.62 0 L 231.62 -1.8 L 221.78 -1.8 L 221.78 -7.51 L 229.22 -7.51 L 229.22 -9.31 L 221.78 -9.31 L 221.78 -15 L 231.62 -15 L 231.62 -16.8 Z M 235.32 -16.8 L 235.32 0 L 237.24 0 L 237.24 -14.86 L 246.36 0 L 249.24 0 L 249.24 -16.8 L 247.32 -16.8 L 247.32 -1.94 L 238.2 -16.8 Z M 252.94 -16.8 L 252.94 0 L 257.98 0 C 262.73 0 266.62 -3.65 266.62 -8.4 C 266.62 -13.15 262.73 -16.8 257.98 -16.8 Z M 254.86 -1.8 L 254.86 -15 L 257.98 -15 C 261.89 -15 264.7 -12.43 264.7 -8.4 C 264.7 -4.37 261.89 -1.8 257.98 -1.8 Z M 278.95 -1.56 C 275.04 -1.56 272.23 -4.37 272.23 -8.4 C 272.23 -12.43 275.04 -15.24 278.95 -15.24 C 282.86 -15.24 285.67 -12.43 285.67 -8.4 C 285.67 -4.37 282.86 -1.56 278.95 -1.56 Z M 270.31 -8.4 C 270.31 -3.65 274.2 0.24 278.95 0.24 C 283.7 0.24 287.59 -3.65 287.59 -8.4 C 287.59 -13.15 283.7 -17.04 278.95 -17.04 C 274.2 -17.04 270.31 -13.15 270.31 -8.4 Z M 291.29 0 L 293.21 0 L 293.21 -7.03 L 296.18 -7.03 C 300.41 -7.03 301.82 -3.96 301.82 0 L 303.74 0 C 303.74 -2.98 302.86 -5.9 300.6 -7.54 C 302.21 -8.33 303.34 -10.01 303.34 -11.95 C 303.34 -14.59 301.13 -16.8 298.49 -16.8 L 291.29 -16.8 Z M 293.21 -8.83 L 293.21 -15 L 298.37 -15 C 300.05 -15 301.44 -13.61 301.44 -11.93 C 301.44 -10.22 300.05 -8.83 298.37 -8.83 Z M 309.17 -4.58 L 307.44 -3.82 C 308.5 -1.54 310.87 0.24 313.78 0.24 C 317.78 0.24 320.06 -2.35 320.06 -4.66 C 320.06 -7.94 316.56 -8.76 313.87 -9.5 C 311.38 -10.2 309.62 -10.73 309.62 -12.43 C 309.62 -14.18 311.52 -15.24 313.37 -15.24 C 316.34 -15.24 317.09 -13.97 317.64 -12.58 L 319.42 -13.25 C 318.82 -14.78 317.5 -17.04 313.37 -17.04 C 310.87 -17.04 307.7 -15.34 307.7 -12.43 C 307.7 -9.38 310.78 -8.5 313.34 -7.78 C 316.03 -7.03 318.14 -6.53 318.14 -4.66 C 318.14 -3.12 316.78 -1.56 313.78 -1.56 C 311.62 -1.56 310.03 -2.74 309.17 -4.58 Z M 323.76 -16.8 L 323.76 0 L 335.52 0 L 335.52 -1.8 L 325.68 -1.8 L 325.68 -7.51 L 333.12 -7.51 L 333.12 -9.31 L 325.68 -9.31 L 325.68 -15 L 335.52 -15 L 335.52 -16.8 Z M 339.22 -16.8 L 339.22 0 L 341.14 0 L 341.14 -13.9 L 346.9 0 L 348.82 0 L 354.58 -13.9 L 354.58 0 L 356.5 0 L 356.5 -16.8 L 353.86 -16.8 L 347.86 -2.33 L 341.86 -16.8 Z M 360.19 -16.8 L 360.19 0 L 371.95 0 L 371.95 -1.8 L 362.11 -1.8 L 362.11 -7.51 L 369.55 -7.51 L 369.55 -9.31 L 362.11 -9.31 L 362.11 -15 L 371.95 -15 L 371.95 -16.8 Z M 375.65 -16.8 L 375.65 0 L 377.57 0 L 377.57 -14.86 L 386.69 0 L 389.57 0 L 389.57 -16.8 L 387.65 -16.8 L 387.65 -1.94 L 378.53 -16.8 Z M 398.54 0 L 400.46 0 L 400.46 -15 L 405.74 -15 L 405.74 -16.8 L 393.26 -16.8 L 393.26 -15 L 398.54 -15 Z M 411.17 -4.58 L 409.44 -3.82 C 410.5 -1.54 412.87 0.24 415.78 0.24 C 419.78 0.24 422.06 -2.35 422.06 -4.66 C 422.06 -7.94 418.56 -8.76 415.87 -9.5 C 413.38 -10.2 411.62 -10.73 411.62 -12.43 C 411.62 -14.18 413.52 -15.24 415.37 -15.24 C 418.34 -15.24 419.09 -13.97 419.64 -12.58 L 421.42 -13.25 C 420.82 -14.78 419.5 -17.04 415.37 -17.04 C 412.87 -17.04 409.7 -15.34 409.7 -12.43 C 409.7 -9.38 412.78 -8.5 415.34 -7.78 C 418.03 -7.03 420.14 -6.53 420.14 -4.66 C 420.14 -3.12 418.78 -1.56 415.78 -1.56 C 413.62 -1.56 412.03 -2.74 411.17 -4.58 Z" stroke-linecap="round" />
</g>
</g>
</g>
<g transform="matrix(1 0 0 1 325 377.15627873330845)" id="tagline-b7f606a3-8163-44c0-8f68-586458845a88-logo"  >
<g style=""  paint-order="stroke"   >
		<g transform="matrix(1 0 0 1 0 0)" id="tagline-b7f606a3-8163-44c0-8f68-586458845a88-logo-path-0"  >
<path style="stroke: none; stroke-width: 0; stroke-dasharray: none; stroke-linecap: butt; stroke-dashoffset: 0; stroke-linejoin: miter; stroke-miterlimit: 4; fill: rgb(50,171,93); fill-rule: nonzero; opacity: 1;"  paint-order="stroke"  transform=" translate(0, 0)" d="" stroke-linecap="round" />
</g>
</g>
</g>
<g transform="matrix(1.9211538461538462 0 0 1.9211538461538462 667.9097501126803 413.59053472449204)" id="tagline-8838c43f-db52-49b8-aa33-a772117c78c3-logo"  >
<g style=""  paint-order="stroke"   >
		<g transform="matrix(1 0 0 1 0 0)" id="tagline-8838c43f-db52-49b8-aa33-a772117c78c3-logo-path-0"  >
<path style="stroke: none; stroke-width: 0; stroke-dasharray: none; stroke-linecap: butt; stroke-dashoffset: 0; stroke-linejoin: miter; stroke-miterlimit: 4; fill: rgb(10,160,225); fill-rule: nonzero; opacity: 1;"  paint-order="stroke"  transform=" translate(-18.179999999999996, 19.415)" d="M 18.21 0 L 12.16 0 L 0.81 -38.83 L 5.53 -38.83 Q 10.2 -38.83 11.24 -35.09 L 11.24 -35.09 L 18.5 -8.76 L 25.52 -35.09 Q 26.5 -38.83 31.06 -38.83 L 31.06 -38.83 L 35.55 -38.83 L 25.64 -4.84 Q 24.26 0 18.21 0 L 18.21 0 Z" stroke-linecap="round" />
</g>
</g>
</g>
<g transform="matrix(1.9211538461538462 0 0 1.9211538461538462 646.8057939351162 649.8301523926145)" id="tagline-2658ce70-3319-4a95-89c2-42c1c2dc1135-logo"  >
<g style=""  paint-order="stroke"   >
		<g transform="matrix(1 0 0 1 0 0)" id="tagline-2658ce70-3319-4a95-89c2-42c1c2dc1135-logo-path-0"  >
<filter id="SVGID_77979" y="-28.333333333333332%" height="156.66666666666666%" x="-20.711828212124807%" width="141.4236564242496%" >
	<feGaussianBlur in="SourceAlpha" stdDeviation="0"></feGaussianBlur>
	<feOffset dx="3" dy="3" result="oBlur" ></feOffset>
	<feFlood flood-color="rgb(142,85,157)" flood-opacity="1"/>
	<feComposite in2="oBlur" operator="in" />
	<feMerge>
		<feMergeNode></feMergeNode>
		<feMergeNode in="SourceGraphic"></feMergeNode>
	</feMerge>
</filter>
<path style="stroke: none; stroke-width: 0; stroke-dasharray: none; stroke-linecap: butt; stroke-dashoffset: 0; stroke-linejoin: miter; stroke-miterlimit: 4; fill: rgb(10,160,225); fill-rule: nonzero; opacity: 1;filter: url(#SVGID_77979);"  paint-order="stroke"  transform=" translate(-212.92499999999998, 17.5)" d="M 14.7 0 L 20.1 0 L 32.6 -35 L 28.4 -35 L 17.4 -4.2 L 6.4 -35 L 2.2 -35 Z M 62.25 -3.25 C 54.1 -3.25 48.25 -9.1 48.25 -17.5 C 48.25 -25.9 54.1 -31.75 62.25 -31.75 C 70.4 -31.75 76.25 -25.9 76.25 -17.5 C 76.25 -9.1 70.4 -3.25 62.25 -3.25 Z M 44.25 -17.5 C 44.25 -7.6 52.35 0.5 62.25 0.5 C 72.15 0.5 80.25 -7.6 80.25 -17.5 C 80.25 -27.4 72.15 -35.5 62.25 -35.5 C 52.35 -35.5 44.25 -27.4 44.25 -17.5 Z M 102.9 0 L 106.9 0 L 106.9 -31.25 L 117.9 -31.25 L 117.9 -35 L 91.9 -35 L 91.9 -31.25 L 102.9 -31.25 Z M 129.55 -35 L 129.55 0 L 154.05 0 L 154.05 -3.75 L 133.55 -3.75 L 133.55 -15.65 L 149.05 -15.65 L 149.05 -19.4 L 133.55 -19.4 L 133.55 -31.25 L 154.05 -31.25 L 154.05 -35 Z M 165.7 0 L 169.7 0 L 169.7 -15.65 L 185.2 -15.65 L 185.2 -19.4 L 169.7 -19.4 L 169.7 -31.25 L 190.2 -31.25 L 190.2 -35 L 165.7 -35 Z M 201.85 -35 L 201.85 0 L 226.35 0 L 226.35 -3.75 L 205.85 -3.75 L 205.85 -35 Z M 251.3 0.5 C 258.5 0.5 264.5 -5.5 264.5 -12.8 L 264.5 -35 L 260.5 -35 L 260.5 -12.55 C 260.5 -7.45 256.3 -3.25 251.3 -3.25 C 246.2 -3.25 242 -7.45 242 -12.55 L 242 -35 L 238 -35 L 238 -12.8 C 238 -5.5 244 0.5 251.3 0.5 Z M 276.15 -35 L 276.15 0 L 300.65 0 L 300.65 -3.75 L 280.15 -3.75 L 280.15 -15.65 L 295.65 -15.65 L 295.65 -19.4 L 280.15 -19.4 L 280.15 -31.25 L 300.65 -31.25 L 300.65 -35 Z M 312.3 -35 L 312.3 0 L 316.3 0 L 316.3 -30.95 L 335.3 0 L 341.3 0 L 341.3 -35 L 337.3 -35 L 337.3 -4.05 L 318.3 -35 Z M 370.95 0.5 C 378.35 0.5 384.8 -4.05 387.5 -10.5 L 383.35 -10.5 C 381.1 -6 376.6 -3.25 370.95 -3.25 C 362.8 -3.25 356.95 -9.1 356.95 -17.5 C 356.95 -25.9 362.8 -31.75 370.95 -31.75 C 375.45 -31.75 379.25 -29.95 381.75 -26.95 L 384.7 -29.1 C 381.4 -33 376.45 -35.5 370.95 -35.5 C 361.05 -35.5 352.95 -27.4 352.95 -17.5 C 352.95 -7.6 361.05 0.5 370.95 0.5 Z M 399.15 -35 L 399.15 0 L 423.65 0 L 423.65 -3.75 L 403.15 -3.75 L 403.15 -15.65 L 418.65 -15.65 L 418.65 -19.4 L 403.15 -19.4 L 403.15 -31.25 L 423.65 -31.25 L 423.65 -35 Z" stroke-linecap="round" />
</g>
</g>
</g>
</svg>